<?xml version="1.0" encoding="utf-8"?>
 <!DOCTYPE svg PUBLIC "-//W3C//DTD SVG 20010904//EN" "http://www.w3.org/TR/2001/REC-SVG-20010904/DTD/svg10.dtd">
<svg xmlns="http://www.w3.org/2000/svg" xmlns:xlink="http://www.w3.org/1999/xlink" viewBox="-5 -5 35 35" class="w-full bg-white" url="https://qrcodeai.amobear.com" correct_level="low" content_point_type="circle" positioning_point_type="planet" positioning_point_color="#000000" content_point_scale="0" content_point_opacity="1" content_point_color="#000000"><circle opacity="1" r="0.17528377914951987" fill="#000000" cx="8.5" cy="0.5"></circle><circle opacity="1" r="0.18839227537722908" fill="#000000" cx="10.5" cy="0.5"></circle><circle opacity="1" r="0.3105156893004115" fill="#000000" cx="13.5" cy="0.5"></circle><circle opacity="1" r="0.43038858882030173" fill="#000000" cx="16.5" cy="0.5"></circle><circle opacity="1" r="0.2682270233196159" fill="#000000" cx="8.5" cy="1.5"></circle><circle opacity="1" r="0.1535063014403292" fill="#000000" cx="9.5" cy="1.5"></circle><circle opacity="1" r="0.28607210219478735" fill="#000000" cx="12.5" cy="1.5"></circle><circle opacity="1" r="0.23058491941015088" fill="#000000" cx="16.5" cy="1.5"></circle><circle opacity="1" r="0.3942978395061728" fill="#000000" cx="9.5" cy="2.5"></circle><circle opacity="1" r="0.23816765260631" fill="#000000" cx="10.5" cy="2.5"></circle><circle opacity="1" r="0.22129929698216733" fill="#000000" cx="13.5" cy="2.5"></circle><circle opacity="1" r="0.4787236368312757" fill="#000000" cx="14.5" cy="2.5"></circle><circle r="1.5" fill="#000000" cx="3.5" cy="3.5"></circle><circle r="3" fill="none" cx="3.5" cy="3.5" stroke-width="0.15" stroke-dasharray="0.5,0.5" stroke="#000000"></circle><circle r="0.5" fill="#000000" cx="6.5" cy="3.5"></circle><circle r="0.5" fill="#000000" cx="0.5" cy="3.5"></circle><circle r="0.5" fill="#000000" cx="3.5" cy="6.5"></circle><circle r="0.5" fill="#000000" cx="3.5" cy="0.5"></circle><circle opacity="1" r="0.43250857338820303" fill="#000000" cx="10.5" cy="3.5"></circle><circle opacity="1" r="0.3862034893689986" fill="#000000" cx="11.5" cy="3.5"></circle><circle fill="#000000" cx="13.5" cy="3.5" r="0.2026170267489712" opacity="1"></circle><circle fill="#000000" cx="15.5" cy="3.5" r="0.31492819787379966" opacity="1"></circle><circle fill="#000000" cx="21.5" cy="3.5" r="1.5"></circle><circle fill="none" cx="21.5" cy="3.5" r="3" stroke-width="0.15" stroke-dasharray="0.5,0.5" stroke="#000000"></circle><circle fill="#000000" cx="24.5" cy="3.5" r="0.5"></circle><circle fill="#000000" cx="18.5" cy="3.5" r="0.5"></circle><circle r="0.5" fill="#000000" cx="21.5" cy="6.5"></circle><circle r="0.5" fill="#000000" cx="21.5" cy="0.5"></circle><circle opacity="1" r="0.17113082990397804" fill="#000000" cx="8.5" cy="4.5"></circle><circle opacity="1" r="0.41181134259259256" fill="#000000" cx="10.5" cy="4.5"></circle><circle opacity="1" r="0.3812598593964335" fill="#000000" cx="11.5" cy="4.5"></circle><circle fill="#000000" cx="12.5" cy="4.5" r="0.421914651920439" opacity="1"></circle><circle fill="#000000" cx="16.5" cy="4.5" r="0.20213991769547324" opacity="1"></circle><circle fill="#000000" cx="8.5" cy="5.5" r="0.4273368912894375" opacity="1"></circle><circle fill="#000000" cx="10.5" cy="5.5" r="0.23438828875171466" opacity="1"></circle><circle fill="#000000" cx="12.5" cy="5.5" r="0.41943608539094646" opacity="1"></circle><circle fill="#000000" cx="13.5" cy="5.5" r="0.24899262688614537" opacity="1"></circle><circle opacity="1" r="0.45438507373113857" fill="#000000" cx="14.5" cy="5.5"></circle><circle opacity="1" r="0.15953317901234568" fill="#000000" cx="15.5" cy="5.5"></circle><circle opacity="1" r="0.3420603995198902" fill="#000000" cx="8.5" cy="6.5"></circle><circle opacity="1" r="0.17773834019204388" fill="#000000" cx="10.5" cy="6.5"></circle><circle opacity="1" r="0.26826453189300414" fill="#000000" cx="12.5" cy="6.5"></circle><circle opacity="1" r="0.15237354252400548" fill="#000000" cx="14.5" cy="6.5"></circle><circle opacity="1" r="0.25028142146776405" fill="#000000" cx="16.5" cy="6.5"></circle><circle opacity="1" r="0.19146347736625513" fill="#000000" cx="10.5" cy="7.5"></circle><circle opacity="1" r="0.17576538923182441" fill="#000000" cx="11.5" cy="7.5"></circle><circle opacity="1" r="0.4678476508916324" fill="#000000" cx="13.5" cy="7.5"></circle><circle opacity="1" r="0.42496334876543207" fill="#000000" cx="15.5" cy="7.5"></circle><circle opacity="1" r="0.20806927297668038" fill="#000000" cx="0.5" cy="8.5"></circle><circle opacity="1" r="0.27627036179698217" fill="#000000" cx="1.5" cy="8.5"></circle><circle opacity="1" r="0.41459747942386826" fill="#000000" cx="2.5" cy="8.5"></circle><circle opacity="1" r="0.3951185270919067" fill="#000000" cx="3.5" cy="8.5"></circle><circle opacity="1" r="0.17138288751714678" fill="#000000" cx="5.5" cy="8.5"></circle><circle opacity="1" r="0.3061992026748971" fill="#000000" cx="6.5" cy="8.5"></circle><circle opacity="1" r="0.18274648491083675" fill="#000000" cx="13.5" cy="8.5"></circle><circle opacity="1" r="0.2990185613854595" fill="#000000" cx="14.5" cy="8.5"></circle><circle opacity="1" r="0.24560185185185185" fill="#000000" cx="15.5" cy="8.5"></circle><circle opacity="1" r="0.41678647976680383" fill="#000000" cx="17.5" cy="8.5"></circle><circle opacity="1" r="0.45501071673525373" fill="#000000" cx="19.5" cy="8.5"></circle><circle opacity="1" r="0.37863876028806587" fill="#000000" cx="20.5" cy="8.5"></circle><circle opacity="1" r="0.19307184499314128" fill="#000000" cx="23.5" cy="8.5"></circle><circle opacity="1" r="0.4351926868998628" fill="#000000" cx="24.5" cy="8.5"></circle><circle opacity="1" r="0.15114326131687242" fill="#000000" cx="2.5" cy="9.5"></circle><circle opacity="1" r="0.3574359139231824" fill="#000000" cx="3.5" cy="9.5"></circle><circle opacity="1" r="0.38539780521262" fill="#000000" cx="4.5" cy="9.5"></circle><circle opacity="1" r="0.4089486882716049" fill="#000000" cx="5.5" cy="9.5"></circle><circle opacity="1" r="0.35571201989026063" fill="#000000" cx="10.5" cy="9.5"></circle><circle opacity="1" r="0.45145940500685866" fill="#000000" cx="11.5" cy="9.5"></circle><circle opacity="1" r="0.2478883744855967" fill="#000000" cx="15.5" cy="9.5"></circle><circle opacity="1" r="0.3337334962277092" fill="#000000" cx="17.5" cy="9.5"></circle><circle opacity="1" r="0.42921081961591223" fill="#000000" cx="18.5" cy="9.5"></circle><circle opacity="1" r="0.16379565329218107" fill="#000000" cx="21.5" cy="9.5"></circle><circle opacity="1" r="0.43733367626886144" fill="#000000" cx="3.5" cy="10.5"></circle><circle opacity="1" r="0.4644853823731139" fill="#000000" cx="4.5" cy="10.5"></circle><circle opacity="1" r="0.3025038580246914" fill="#000000" cx="5.5" cy="10.5"></circle><circle opacity="1" r="0.4623458933470508" fill="#000000" cx="6.5" cy="10.5"></circle><circle opacity="1" r="0.353116426611797" fill="#000000" cx="7.5" cy="10.5"></circle><circle opacity="1" r="0.4598463220164609" fill="#000000" cx="8.5" cy="10.5"></circle><circle opacity="1" r="0.20460348079561042" fill="#000000" cx="10.5" cy="10.5"></circle><circle opacity="1" r="0.24093728566529493" fill="#000000" cx="13.5" cy="10.5"></circle><circle opacity="1" r="0.43165637860082295" fill="#000000" cx="14.5" cy="10.5"></circle><circle opacity="1" r="0.1599397719478738" fill="#000000" cx="15.5" cy="10.5"></circle><circle opacity="1" r="0.273781292866941" fill="#000000" cx="17.5" cy="10.5"></circle><circle opacity="1" r="0.3637673611111111" fill="#000000" cx="20.5" cy="10.5"></circle><circle opacity="1" r="0.47418810013717416" fill="#000000" cx="22.5" cy="10.5"></circle><circle opacity="1" r="0.24748178155006856" fill="#000000" cx="24.5" cy="10.5"></circle><circle opacity="1" r="0.40201260288065843" fill="#000000" cx="1.5" cy="11.5"></circle><circle opacity="1" r="0.24318179869684498" fill="#000000" cx="7.5" cy="11.5"></circle><circle opacity="1" r="0.30787208504801095" fill="#000000" cx="8.5" cy="11.5"></circle><circle opacity="1" r="0.3422254372427983" fill="#000000" cx="9.5" cy="11.5"></circle><circle opacity="1" r="0.31275420096021944" fill="#000000" cx="10.5" cy="11.5"></circle><circle opacity="1" r="0.25078553669410153" fill="#000000" cx="12.5" cy="11.5"></circle><circle opacity="1" r="0.33023919753086417" fill="#000000" cx="13.5" cy="11.5"></circle><circle opacity="1" r="0.47873864026063095" fill="#000000" cx="14.5" cy="11.5"></circle><circle opacity="1" r="0.2220554698216735" fill="#000000" cx="17.5" cy="11.5"></circle><circle opacity="1" r="0.1618872170781893" fill="#000000" cx="18.5" cy="11.5"></circle><circle opacity="1" r="0.18696844993141287" fill="#000000" cx="20.5" cy="11.5"></circle><circle opacity="1" r="0.3675152177640604" fill="#000000" cx="21.5" cy="11.5"></circle><circle opacity="1" r="0.333002829218107" fill="#000000" cx="22.5" cy="11.5"></circle><circle opacity="1" r="0.28327696330589847" fill="#000000" cx="1.5" cy="12.5"></circle><circle opacity="1" r="0.48299811385459535" fill="#000000" cx="2.5" cy="12.5"></circle><circle opacity="1" r="0.28941936728395057" fill="#000000" cx="4.5" cy="12.5"></circle><circle opacity="1" r="0.2134975137174211" fill="#000000" cx="6.5" cy="12.5"></circle><circle opacity="1" r="0.36433749142661176" fill="#000000" cx="7.5" cy="12.5"></circle><circle opacity="1" r="0.1769701646090535" fill="#000000" cx="8.5" cy="12.5"></circle><circle opacity="1" r="0.47346343449931416" fill="#000000" cx="10.5" cy="12.5"></circle><circle opacity="1" r="0.15736668381344307" fill="#000000" cx="11.5" cy="12.5"></circle><circle opacity="1" r="0.491488554526749" fill="#000000" cx="12.5" cy="12.5"></circle><circle opacity="1" r="0.15900805898491083" fill="#000000" cx="14.5" cy="12.5"></circle><circle opacity="1" r="0.3579190243484225" fill="#000000" cx="16.5" cy="12.5"></circle><circle opacity="1" r="0.32880787037037035" fill="#000000" cx="19.5" cy="12.5"></circle><circle opacity="1" r="0.46596472050754456" fill="#000000" cx="20.5" cy="12.5"></circle><circle opacity="1" r="0.41182784636488334" fill="#000000" cx="21.5" cy="12.5"></circle><circle opacity="1" r="0.18476144547325102" fill="#000000" cx="0.5" cy="13.5"></circle><circle opacity="1" r="0.49016675240054863" fill="#000000" cx="1.5" cy="13.5"></circle><circle opacity="1" r="0.46492648319615915" fill="#000000" cx="3.5" cy="13.5"></circle><circle opacity="1" r="0.20518261316872427" fill="#000000" cx="5.5" cy="13.5"></circle><circle opacity="1" r="0.37744748799725647" fill="#000000" cx="10.5" cy="13.5"></circle><circle opacity="1" r="0.31304826817558296" fill="#000000" cx="13.5" cy="13.5"></circle><circle opacity="1" r="0.18590470679012344" fill="#000000" cx="14.5" cy="13.5"></circle><circle opacity="1" r="0.27364026063100133" fill="#000000" cx="17.5" cy="13.5"></circle><circle opacity="1" r="0.45202653463648834" fill="#000000" cx="21.5" cy="13.5"></circle><circle opacity="1" r="0.2727610596707819" fill="#000000" cx="0.5" cy="14.5"></circle><circle opacity="1" r="0.3245784036351166" fill="#000000" cx="1.5" cy="14.5"></circle><circle opacity="1" r="0.3276946159122085" fill="#000000" cx="2.5" cy="14.5"></circle><circle opacity="1" r="0.26158500514403293" fill="#000000" cx="3.5" cy="14.5"></circle><circle opacity="1" r="0.3260952503429355" fill="#000000" cx="4.5" cy="14.5"></circle><circle opacity="1" r="0.43588584533607677" fill="#000000" cx="6.5" cy="14.5"></circle><circle opacity="1" r="0.29820987654320985" fill="#000000" cx="7.5" cy="14.5"></circle><circle opacity="1" r="0.4240241340877915" fill="#000000" cx="9.5" cy="14.5"></circle><circle opacity="1" r="0.2224335562414266" fill="#000000" cx="10.5" cy="14.5"></circle><circle opacity="1" r="0.17846900720164607" fill="#000000" cx="11.5" cy="14.5"></circle><circle opacity="1" r="0.4141983882030178" fill="#000000" cx="13.5" cy="14.5"></circle><circle opacity="1" r="0.1831710819615912" fill="#000000" cx="17.5" cy="14.5"></circle><circle opacity="1" r="0.39819573045267487" fill="#000000" cx="18.5" cy="14.5"></circle><circle opacity="1" r="0.4424513460219478" fill="#000000" cx="19.5" cy="14.5"></circle><circle opacity="1" r="0.463931755829904" fill="#000000" cx="21.5" cy="14.5"></circle><circle opacity="1" r="0.4032233796296296" fill="#000000" cx="23.5" cy="14.5"></circle><circle opacity="1" r="0.3046163408779149" fill="#000000" cx="0.5" cy="15.5"></circle><circle opacity="1" r="0.16054891117969822" fill="#000000" cx="4.5" cy="15.5"></circle><circle opacity="1" r="0.3393852880658436" fill="#000000" cx="7.5" cy="15.5"></circle><circle opacity="1" r="0.4965267061042523" fill="#000000" cx="8.5" cy="15.5"></circle><circle opacity="1" r="0.4688558813443072" fill="#000000" cx="9.5" cy="15.5"></circle><circle opacity="1" r="0.35251478909465017" fill="#000000" cx="10.5" cy="15.5"></circle><circle opacity="1" r="0.4640157750342935" fill="#000000" cx="11.5" cy="15.5"></circle><circle opacity="1" r="0.4846859996570645" fill="#000000" cx="13.5" cy="15.5"></circle><circle opacity="1" r="0.23844521604938268" fill="#000000" cx="14.5" cy="15.5"></circle><circle opacity="1" r="0.35291688100137175" fill="#000000" cx="15.5" cy="15.5"></circle><circle opacity="1" r="0.3538725994513031" fill="#000000" cx="23.5" cy="15.5"></circle><circle opacity="1" r="0.4930099022633745" fill="#000000" cx="24.5" cy="15.5"></circle><circle opacity="1" r="0.3090633573388203" fill="#000000" cx="0.5" cy="16.5"></circle><circle opacity="1" r="0.22224901406035663" fill="#000000" cx="3.5" cy="16.5"></circle><circle opacity="1" r="0.21204218106995884" fill="#000000" cx="5.5" cy="16.5"></circle><circle opacity="1" r="0.47828853737997257" fill="#000000" cx="6.5" cy="16.5"></circle><circle opacity="1" r="0.2356485768175583" fill="#000000" cx="7.5" cy="16.5"></circle><circle opacity="1" r="0.24137538580246912" fill="#000000" cx="9.5" cy="16.5"></circle><circle opacity="1" r="0.30642575445816184" fill="#000000" cx="11.5" cy="16.5"></circle><circle opacity="1" r="0.18990462105624142" fill="#000000" cx="13.5" cy="16.5"></circle><circle opacity="1" r="0.37684284979423865" fill="#000000" cx="16.5" cy="16.5"></circle><circle opacity="1" r="0.2893083419067215" fill="#000000" cx="17.5" cy="16.5"></circle><circle opacity="1" r="0.23085048010973935" fill="#000000" cx="18.5" cy="16.5"></circle><circle opacity="1" r="0.41427790637860074" fill="#000000" cx="19.5" cy="16.5"></circle><circle opacity="1" r="0.2227696330589849" fill="#000000" cx="20.5" cy="16.5"></circle><circle opacity="1" r="0.15431948731138545" fill="#000000" cx="22.5" cy="16.5"></circle><circle opacity="1" r="0.4995138888888888" fill="#000000" cx="9.5" cy="17.5"></circle><circle opacity="1" r="0.25264296124828534" fill="#000000" cx="10.5" cy="17.5"></circle><circle opacity="1" r="0.456144975994513" fill="#000000" cx="11.5" cy="17.5"></circle><circle opacity="1" r="0.42838413065843617" fill="#000000" cx="12.5" cy="17.5"></circle><circle opacity="1" r="0.1747616598079561" fill="#000000" cx="14.5" cy="17.5"></circle><circle opacity="1" r="0.2321602794924554" fill="#000000" cx="16.5" cy="17.5"></circle><circle opacity="1" r="0.3467219650205761" fill="#000000" cx="20.5" cy="17.5"></circle><circle opacity="1" r="0.48495906207133055" fill="#000000" cx="21.5" cy="17.5"></circle><circle opacity="1" r="0.3281987311385459" fill="#000000" cx="22.5" cy="17.5"></circle><circle opacity="1" r="0.400360725308642" fill="#000000" cx="24.5" cy="17.5"></circle><circle opacity="1" r="0.2790685013717421" fill="#000000" cx="11.5" cy="18.5"></circle><circle opacity="1" r="0.19009366426611796" fill="#000000" cx="12.5" cy="18.5"></circle><circle opacity="1" r="0.3851337448559671" fill="#000000" cx="15.5" cy="18.5"></circle><circle opacity="1" r="0.402923311042524" fill="#000000" cx="16.5" cy="18.5"></circle><circle opacity="1" r="0.3136784122085048" fill="#000000" cx="18.5" cy="18.5"></circle><circle opacity="1" r="0.44687435699588474" fill="#000000" cx="20.5" cy="18.5"></circle><circle opacity="1" r="0.3023568244170096" fill="#000000" cx="21.5" cy="18.5"></circle><circle opacity="1" r="0.4947863082990397" fill="#000000" cx="22.5" cy="18.5"></circle><circle opacity="1" r="0.38141589506172835" fill="#000000" cx="23.5" cy="18.5"></circle><circle opacity="1" r="0.4732023748285322" fill="#000000" cx="8.5" cy="19.5"></circle><circle opacity="1" r="0.17925068587105625" fill="#000000" cx="10.5" cy="19.5"></circle><circle opacity="1" r="0.3345916923868313" fill="#000000" cx="14.5" cy="19.5"></circle><circle opacity="1" r="0.3612932956104252" fill="#000000" cx="15.5" cy="19.5"></circle><circle opacity="1" r="0.2129048782578875" fill="#000000" cx="16.5" cy="19.5"></circle><circle opacity="1" r="0.4522350823045267" fill="#000000" cx="20.5" cy="19.5"></circle><circle opacity="1" r="0.46246292009602197" fill="#000000" cx="21.5" cy="19.5"></circle><circle opacity="1" r="0.3915822187928669" fill="#000000" cx="23.5" cy="19.5"></circle><circle opacity="1" r="0.18017939814814815" fill="#000000" cx="9.5" cy="20.5"></circle><circle opacity="1" r="0.22254458161865567" fill="#000000" cx="13.5" cy="20.5"></circle><circle opacity="1" r="0.16111604080932784" fill="#000000" cx="14.5" cy="20.5"></circle><circle opacity="1" r="0.36425797325102877" fill="#000000" cx="15.5" cy="20.5"></circle><circle opacity="1" r="0.4873716135116598" fill="#000000" cx="16.5" cy="20.5"></circle><circle opacity="1" r="0.36733967764060355" fill="#000000" cx="17.5" cy="20.5"></circle><circle opacity="1" r="0.45030414094650206" fill="#000000" cx="18.5" cy="20.5"></circle><circle opacity="1" r="0.35277734910836767" fill="#000000" cx="19.5" cy="20.5"></circle><circle opacity="1" r="0.4560864626200274" fill="#000000" cx="20.5" cy="20.5"></circle><circle opacity="1" r="0.2341512345679012" fill="#000000" cx="23.5" cy="20.5"></circle><circle r="1.5" fill="#000000" cx="3.5" cy="21.5"></circle><circle r="3" fill="none" cx="3.5" cy="21.5" stroke-width="0.15" stroke-dasharray="0.5,0.5" stroke="#000000"></circle><circle r="0.5" fill="#000000" cx="6.5" cy="21.5"></circle><circle r="0.5" fill="#000000" cx="0.5" cy="21.5"></circle><circle r="0.5" fill="#000000" cx="3.5" cy="24.5"></circle><circle r="0.5" fill="#000000" cx="3.5" cy="18.5"></circle><circle opacity="1" r="0.31459512174211246" fill="#000000" cx="8.5" cy="21.5"></circle><circle opacity="1" r="0.22318972908093276" fill="#000000" cx="9.5" cy="21.5"></circle><circle opacity="1" r="0.21163258744855967" fill="#000000" cx="10.5" cy="21.5"></circle><circle opacity="1" r="0.1686582647462277" fill="#000000" cx="12.5" cy="21.5"></circle><circle opacity="1" r="0.16448281035665294" fill="#000000" cx="14.5" cy="21.5"></circle><circle opacity="1" r="0.1785815329218107" fill="#000000" cx="16.5" cy="21.5"></circle><circle opacity="1" r="0.4108001114540466" fill="#000000" cx="19.5" cy="21.5"></circle><circle opacity="1" r="0.42579903978052125" fill="#000000" cx="20.5" cy="21.5"></circle><circle opacity="1" r="0.28083140432098763" fill="#000000" cx="22.5" cy="21.5"></circle><circle opacity="1" r="0.4868539951989026" fill="#000000" cx="23.5" cy="21.5"></circle><circle opacity="1" r="0.45297175068587103" fill="#000000" cx="8.5" cy="22.5"></circle><circle opacity="1" r="0.31421553497942384" fill="#000000" cx="10.5" cy="22.5"></circle><circle opacity="1" r="0.19265324931412894" fill="#000000" cx="11.5" cy="22.5"></circle><circle opacity="1" r="0.39183427640603563" fill="#000000" cx="12.5" cy="22.5"></circle><circle opacity="1" r="0.4245672582304527" fill="#000000" cx="14.5" cy="22.5"></circle><circle opacity="1" r="0.37403120713305893" fill="#000000" cx="15.5" cy="22.5"></circle><circle opacity="1" r="0.3882199502743484" fill="#000000" cx="16.5" cy="22.5"></circle><circle opacity="1" r="0.4077199074074074" fill="#000000" cx="19.5" cy="22.5"></circle><circle opacity="1" r="0.476821201989026" fill="#000000" cx="20.5" cy="22.5"></circle><circle opacity="1" r="0.23796210562414266" fill="#000000" cx="21.5" cy="22.5"></circle><circle opacity="1" r="0.40950681584362136" fill="#000000" cx="23.5" cy="22.5"></circle><circle opacity="1" r="0.29685656721536346" fill="#000000" cx="24.5" cy="22.5"></circle><circle opacity="1" r="0.4368940757887517" fill="#000000" cx="8.5" cy="23.5"></circle><circle opacity="1" r="0.22576131687242795" fill="#000000" cx="9.5" cy="23.5"></circle><circle opacity="1" r="0.32997063614540467" fill="#000000" cx="11.5" cy="23.5"></circle><circle opacity="1" r="0.4308491941015089" fill="#000000" cx="12.5" cy="23.5"></circle><circle opacity="1" r="0.3523167438271605" fill="#000000" cx="13.5" cy="23.5"></circle><circle opacity="1" r="0.3719967421124828" fill="#000000" cx="15.5" cy="23.5"></circle><circle opacity="1" r="0.36566079389574757" fill="#000000" cx="19.5" cy="23.5"></circle><circle opacity="1" r="0.23500643004115224" fill="#000000" cx="20.5" cy="23.5"></circle><circle opacity="1" r="0.21876821844993138" fill="#000000" cx="21.5" cy="23.5"></circle><circle opacity="1" r="0.3871622085048011" fill="#000000" cx="22.5" cy="23.5"></circle><circle opacity="1" r="0.3696637088477366" fill="#000000" cx="23.5" cy="23.5"></circle><circle opacity="1" r="0.36611839849108363" fill="#000000" cx="24.5" cy="23.5"></circle><circle opacity="1" r="0.29118677126200276" fill="#000000" cx="8.5" cy="24.5"></circle><circle opacity="1" r="0.2021219135802469" fill="#000000" cx="12.5" cy="24.5"></circle><circle opacity="1" r="0.259880615569273" fill="#000000" cx="21.5" cy="24.5"></circle><circle opacity="1" r="0.22356781550068586" fill="#000000" cx="24.5" cy="24.5"></circle></svg>