<?xml version="1.0" encoding="utf-8"?>
 <!DOCTYPE svg PUBLIC "-//W3C//DTD SVG 20010904//EN" "http://www.w3.org/TR/2001/REC-SVG-20010904/DTD/svg10.dtd">
<svg xmlns="http://www.w3.org/2000/svg" xmlns:xlink="http://www.w3.org/1999/xlink" viewBox="-5 -5 35 35" class="w-full bg-white" url="https://qrcodeai.amobear.com" correct_level="low" content_line_type="cross" positioning_point_type="square" positioning_point_color="#000000" content_point_scale="0.6" content_point_opacity="1" content_point_color="#000000"><line opacity="1" x1="8.5" y1="0.5" x2="15.5" y2="7.5" stroke-width="0.20942759773662548" stroke="#000000" stroke-linecap="round"></line><circle opacity="1" r="0.3692011316872428" fill="#000000" cx="8.5" cy="0.5"></circle><circle opacity="1" r="0.25995235339506173" fill="#000000" cx="10.5" cy="0.5"></circle><circle opacity="1" r="0.44706545781893003" fill="#000000" cx="13.5" cy="0.5"></circle><circle opacity="1" r="0.29104970421810705" fill="#000000" cx="16.5" cy="0.5"></circle><line opacity="1" x1="8.5" y1="1.5" x2="12.5" y2="5.5" stroke-width="0.26943981481481477" stroke="#000000" stroke-linecap="round"></line><circle opacity="1" r="0.3605575488683128" fill="#000000" cx="8.5" cy="1.5"></circle><line opacity="1" x1="9.5" y1="1.5" x2="10.5" y2="0.5" stroke-width="0.14230735596707816" stroke="#000000" stroke-linecap="round"></line><circle opacity="1" r="0.42977218364197534" fill="#000000" cx="9.5" cy="1.5"></circle><line opacity="1" x1="12.5" y1="1.5" x2="13.5" y2="0.5" stroke-width="0.10569958847736624" stroke="#000000" stroke-linecap="round"></line><line opacity="1" x1="12.5" y1="1.5" x2="13.5" y2="2.5" stroke-width="0.20624987139917694" stroke="#000000" stroke-linecap="round"></line><circle opacity="1" r="0.4424425154320988" fill="#000000" cx="12.5" cy="1.5"></circle><circle opacity="1" r="0.32806256430041153" fill="#000000" cx="16.5" cy="1.5"></circle><circle opacity="1" r="0.3851370884773663" fill="#000000" cx="9.5" cy="2.5"></circle><circle opacity="1" r="0.2802864583333333" fill="#000000" cx="10.5" cy="2.5"></circle><circle opacity="1" r="0.3345754886831276" fill="#000000" cx="13.5" cy="2.5"></circle><line opacity="1" x1="14.5" y1="2.5" x2="16.5" y2="4.5" stroke-width="0.15767656893004114" stroke="#000000" stroke-linecap="round"></line><circle opacity="1" r="0.34705401234567906" fill="#000000" cx="14.5" cy="2.5"></circle><rect fill="#000000" x="2" y="2" width="3" height="3"></rect><rect fill="none" stroke-width="1" stroke="#000000" x="0.5" y="0.5" width="6" height="6"></rect><circle opacity="1" r="0.3245953575102881" fill="#000000" cx="10.5" cy="3.5"></circle><circle opacity="1" r="0.3416467335390947" fill="#000000" cx="11.5" cy="3.5"></circle><circle opacity="1" r="0.1914951774691358" fill="#000000" cx="13.5" cy="3.5"></circle><circle opacity="1" r="0.4168721707818931" fill="#000000" cx="15.5" cy="3.5"></circle><rect fill="#000000" x="20" y="2" width="3" height="3"></rect><rect fill="none" stroke-width="1" stroke="#000000" x="18.5" y="0.5" width="6" height="6"></rect><circle opacity="1" r="0.18828697273662554" fill="#000000" cx="8.5" cy="4.5"></circle><line opacity="1" x1="10.5" y1="4.5" x2="11.5" y2="3.5" stroke-width="0.12858101851851853" stroke="#000000" stroke-linecap="round"></line><circle opacity="1" r="0.4451559284979424" fill="#000000" cx="10.5" cy="4.5"></circle><circle opacity="1" r="0.20051748971193417" fill="#000000" cx="11.5" cy="4.5"></circle><line opacity="1" x1="12.5" y1="4.5" x2="14.5" y2="2.5" stroke-width="0.15881983024691357" stroke="#000000" stroke-linecap="round"></line><circle opacity="1" r="0.24319663065843622" fill="#000000" cx="12.5" cy="4.5"></circle><circle opacity="1" r="0.2120882844650206" fill="#000000" cx="16.5" cy="4.5"></circle><circle opacity="1" r="0.4333603395061729" fill="#000000" cx="8.5" cy="5.5"></circle><line opacity="1" x1="10.5" y1="5.5" x2="11.5" y2="4.5" stroke-width="0.12665367798353908" stroke="#000000" stroke-linecap="round"></line><circle opacity="1" r="0.3417493569958848" fill="#000000" cx="10.5" cy="5.5"></circle><circle opacity="1" r="0.2909959490740741" fill="#000000" cx="12.5" cy="5.5"></circle><circle opacity="1" r="0.19354886831275722" fill="#000000" cx="13.5" cy="5.5"></circle><circle opacity="1" r="0.42325070730452674" fill="#000000" cx="14.5" cy="5.5"></circle><line opacity="1" x1="15.5" y1="5.5" x2="16.5" y2="6.5" stroke-width="0.1416195987654321" stroke="#000000" stroke-linecap="round"></line><circle opacity="1" r="0.29836040380658435" fill="#000000" cx="15.5" cy="5.5"></circle><circle opacity="1" r="0.29034233539094656" fill="#000000" cx="8.5" cy="6.5"></circle><line opacity="1" x1="10.5" y1="6.5" x2="11.5" y2="7.5" stroke-width="0.25158063271604936" stroke="#000000" stroke-linecap="round"></line><circle opacity="1" r="0.362928883744856" fill="#000000" cx="10.5" cy="6.5"></circle><line opacity="1" x1="12.5" y1="6.5" x2="15.5" y2="9.5" stroke-width="0.2239389146090535" stroke="#000000" stroke-linecap="round"></line><circle opacity="1" r="0.2874444444444445" fill="#000000" cx="12.5" cy="6.5"></circle><circle opacity="1" r="0.22100430812757205" fill="#000000" cx="14.5" cy="6.5"></circle><circle opacity="1" r="0.4262964248971194" fill="#000000" cx="16.5" cy="6.5"></circle><circle opacity="1" r="0.34827449845679015" fill="#000000" cx="10.5" cy="7.5"></circle><line opacity="1" x1="11.5" y1="7.5" x2="13.5" y2="5.5" stroke-width="0.1720375514403292" stroke="#000000" stroke-linecap="round"></line><circle opacity="1" r="0.3626588863168725" fill="#000000" cx="11.5" cy="7.5"></circle><line opacity="1" x1="13.5" y1="7.5" x2="16.5" y2="4.5" stroke-width="0.26354706790123456" stroke="#000000" stroke-linecap="round"></line><circle opacity="1" r="0.36267599022633745" fill="#000000" cx="13.5" cy="7.5"></circle><circle opacity="1" r="0.2746116255144033" fill="#000000" cx="15.5" cy="7.5"></circle><circle opacity="1" r="0.27795543981481485" fill="#000000" cx="0.5" cy="8.5"></circle><line opacity="1" x1="1.5" y1="8.5" x2="3.5" y2="10.5" stroke-width="0.1996216563786008" stroke="#000000" stroke-linecap="round"></line><circle opacity="1" r="0.280904642489712" fill="#000000" cx="1.5" cy="8.5"></circle><line opacity="1" x1="2.5" y1="8.5" x2="4.5" y2="10.5" stroke-width="0.2515941358024691" stroke="#000000" stroke-linecap="round"></line><circle opacity="1" r="0.24837545010288067" fill="#000000" cx="2.5" cy="8.5"></circle><line opacity="1" x1="3.5" y1="8.5" x2="5.5" y2="10.5" stroke-width="0.1270542695473251" stroke="#000000" stroke-linecap="round"></line><circle opacity="1" r="0.26833082561728394" fill="#000000" cx="3.5" cy="8.5"></circle><circle opacity="1" r="0.28523559670781895" fill="#000000" cx="5.5" cy="8.5"></circle><circle opacity="1" r="0.19651150977366255" fill="#000000" cx="6.5" cy="8.5"></circle><circle opacity="1" r="0.3337789351851852" fill="#000000" cx="13.5" cy="8.5"></circle><line opacity="1" x1="14.5" y1="8.5" x2="16.5" y2="6.5" stroke-width="0.15860198045267487" stroke="#000000" stroke-linecap="round"></line><circle opacity="1" r="0.3433253600823045" fill="#000000" cx="14.5" cy="8.5"></circle><circle opacity="1" r="0.4144006558641976" fill="#000000" cx="15.5" cy="8.5"></circle><line opacity="1" x1="17.5" y1="8.5" x2="18.5" y2="9.5" stroke-width="0.17895653292181066" stroke="#000000" stroke-linecap="round"></line><circle opacity="1" r="0.2044794881687243" fill="#000000" cx="17.5" cy="8.5"></circle><circle opacity="1" r="0.34394598765432105" fill="#000000" cx="19.5" cy="8.5"></circle><line opacity="1" x1="20.5" y1="8.5" x2="22.5" y2="10.5" stroke-width="0.1171583076131687" stroke="#000000" stroke-linecap="round"></line><circle opacity="1" r="0.18372389403292183" fill="#000000" cx="20.5" cy="8.5"></circle><circle opacity="1" r="0.24116493055555557" fill="#000000" cx="23.5" cy="8.5"></circle><circle opacity="1" r="0.41024562757201655" fill="#000000" cx="24.5" cy="8.5"></circle><line opacity="1" x1="2.5" y1="9.5" x2="3.5" y2="8.5" stroke-width="0.2630168467078189" stroke="#000000" stroke-linecap="round"></line><circle opacity="1" r="0.22480748456790123" fill="#000000" cx="2.5" cy="9.5"></circle><circle opacity="1" r="0.17464049639917698" fill="#000000" cx="3.5" cy="9.5"></circle><circle opacity="1" r="0.40148353909465023" fill="#000000" cx="4.5" cy="9.5"></circle><line opacity="1" x1="5.5" y1="9.5" x2="8.5" y2="12.5" stroke-width="0.2731963734567901" stroke="#000000" stroke-linecap="round"></line><circle opacity="1" r="0.1837923096707819" fill="#000000" cx="5.5" cy="9.5"></circle><circle opacity="1" r="0.3074987782921811" fill="#000000" cx="10.5" cy="9.5"></circle><circle opacity="1" r="0.35636342592592596" fill="#000000" cx="11.5" cy="9.5"></circle><circle opacity="1" r="0.2714510673868313" fill="#000000" cx="15.5" cy="9.5"></circle><circle opacity="1" r="0.23660429526748972" fill="#000000" cx="17.5" cy="9.5"></circle><circle opacity="1" r="0.17177681327160493" fill="#000000" cx="18.5" cy="9.5"></circle><circle opacity="1" r="0.27136676954732514" fill="#000000" cx="21.5" cy="9.5"></circle><line opacity="1" x1="3.5" y1="10.5" x2="5.5" y2="8.5" stroke-width="0.195036908436214" stroke="#000000" stroke-linecap="round"></line><circle opacity="1" r="0.2636138117283951" fill="#000000" cx="3.5" cy="10.5"></circle><line opacity="1" x1="4.5" y1="10.5" x2="6.5" y2="8.5" stroke-width="0.19116062242798354" stroke="#000000" stroke-linecap="round"></line><circle opacity="1" r="0.3540861625514404" fill="#000000" cx="4.5" cy="10.5"></circle><circle opacity="1" r="0.1806244212962963" fill="#000000" cx="5.5" cy="10.5"></circle><circle opacity="1" r="0.19796900720164612" fill="#000000" cx="6.5" cy="10.5"></circle><line opacity="1" x1="7.5" y1="10.5" x2="8.5" y2="11.5" stroke-width="0.12313027263374483" stroke="#000000" stroke-linecap="round"></line><circle opacity="1" r="0.3265586419753087" fill="#000000" cx="7.5" cy="10.5"></circle><line opacity="1" x1="8.5" y1="10.5" x2="10.5" y2="12.5" stroke-width="0.23527250514403286" stroke="#000000" stroke-linecap="round"></line><circle opacity="1" r="0.27892914094650206" fill="#000000" cx="8.5" cy="10.5"></circle><circle opacity="1" r="0.2501664737654321" fill="#000000" cx="10.5" cy="10.5"></circle><line opacity="1" x1="13.5" y1="10.5" x2="14.5" y2="11.5" stroke-width="0.22159927983539096" stroke="#000000" stroke-linecap="round"></line><circle opacity="1" r="0.3947360468106996" fill="#000000" cx="13.5" cy="10.5"></circle><circle opacity="1" r="0.35519791666666667" fill="#000000" cx="14.5" cy="10.5"></circle><circle opacity="1" r="0.26104944701646093" fill="#000000" cx="15.5" cy="10.5"></circle><line opacity="1" x1="17.5" y1="10.5" x2="19.5" y2="8.5" stroke-width="0.25662448559670775" stroke="#000000" stroke-linecap="round"></line><line opacity="1" x1="17.5" y1="10.5" x2="19.5" y2="12.5" stroke-width="0.10871797839506173" stroke="#000000" stroke-linecap="round"></line><circle opacity="1" r="0.2332568158436214" fill="#000000" cx="17.5" cy="10.5"></circle><line opacity="1" x1="20.5" y1="10.5" x2="21.5" y2="9.5" stroke-width="0.25348366769547326" stroke="#000000" stroke-linecap="round"></line><line opacity="1" x1="20.5" y1="10.5" x2="21.5" y2="11.5" stroke-width="0.29597067901234564" stroke="#000000" stroke-linecap="round"></line><circle opacity="1" r="0.37897112911522635" fill="#000000" cx="20.5" cy="10.5"></circle><circle opacity="1" r="0.21569843106995887" fill="#000000" cx="22.5" cy="10.5"></circle><circle opacity="1" r="0.38133391203703704" fill="#000000" cx="24.5" cy="10.5"></circle><line opacity="1" x1="1.5" y1="11.5" x2="4.5" y2="14.5" stroke-width="0.15037860082304524" stroke="#000000" stroke-linecap="round"></line><circle opacity="1" r="0.2813664480452675" fill="#000000" cx="1.5" cy="11.5"></circle><circle opacity="1" r="0.4045597993827161" fill="#000000" cx="7.5" cy="11.5"></circle><circle opacity="1" r="0.24092058899176955" fill="#000000" cx="8.5" cy="11.5"></circle><circle opacity="1" r="0.41762474279835393" fill="#000000" cx="9.5" cy="11.5"></circle><line opacity="1" x1="10.5" y1="11.5" x2="11.5" y2="12.5" stroke-width="0.22481211419753086" stroke="#000000" stroke-linecap="round"></line><circle opacity="1" r="0.19465573559670785" fill="#000000" cx="10.5" cy="11.5"></circle><circle opacity="1" r="0.1732233153292181" fill="#000000" cx="12.5" cy="11.5"></circle><line opacity="1" x1="13.5" y1="11.5" x2="14.5" y2="12.5" stroke-width="0.211787037037037" stroke="#000000" stroke-linecap="round"></line><circle opacity="1" r="0.22689782664609054" fill="#000000" cx="13.5" cy="11.5"></circle><line opacity="1" x1="14.5" y1="11.5" x2="15.5" y2="10.5" stroke-width="0.1429879115226337" stroke="#000000" stroke-linecap="round"></line><circle opacity="1" r="0.18527912808641978" fill="#000000" cx="14.5" cy="11.5"></circle><circle opacity="1" r="0.1713968621399177" fill="#000000" cx="17.5" cy="11.5"></circle><circle opacity="1" r="0.44244129372427987" fill="#000000" cx="18.5" cy="11.5"></circle><line opacity="1" x1="20.5" y1="11.5" x2="21.5" y2="12.5" stroke-width="0.20177854938271603" stroke="#000000" stroke-linecap="round"></line><circle opacity="1" r="0.4319028420781893" fill="#000000" cx="20.5" cy="11.5"></circle><circle opacity="1" r="0.33856069958847734" fill="#000000" cx="21.5" cy="11.5"></circle><circle opacity="1" r="0.2732934027777778" fill="#000000" cx="22.5" cy="11.5"></circle><circle opacity="1" r="0.2721657664609054" fill="#000000" cx="1.5" cy="12.5"></circle><circle opacity="1" r="0.3290203832304527" fill="#000000" cx="2.5" cy="12.5"></circle><line opacity="1" x1="4.5" y1="12.5" x2="7.5" y2="15.5" stroke-width="0.09649228395061728" stroke="#000000" stroke-linecap="round"></line><circle opacity="1" r="0.38093563528806584" fill="#000000" cx="4.5" cy="12.5"></circle><circle opacity="1" r="0.24757034465020578" fill="#000000" cx="6.5" cy="12.5"></circle><line opacity="1" x1="7.5" y1="12.5" x2="8.5" y2="11.5" stroke-width="0.2793699845679012" stroke="#000000" stroke-linecap="round"></line><circle opacity="1" r="0.3069624485596708" fill="#000000" cx="7.5" cy="12.5"></circle><line opacity="1" x1="8.5" y1="12.5" x2="11.5" y2="9.5" stroke-width="0.12533937757201646" stroke="#000000" stroke-linecap="round"></line><circle opacity="1" r="0.28161689814814816" fill="#000000" cx="8.5" cy="12.5"></circle><circle opacity="1" r="0.16899620627572018" fill="#000000" cx="10.5" cy="12.5"></circle><circle opacity="1" r="0.3439411008230453" fill="#000000" cx="11.5" cy="12.5"></circle><line opacity="1" x1="12.5" y1="12.5" x2="15.5" y2="9.5" stroke-width="0.29366705246913577" stroke="#000000" stroke-linecap="round"></line><line opacity="1" x1="12.5" y1="12.5" x2="13.5" y2="13.5" stroke-width="0.24163245884773657" stroke="#000000" stroke-linecap="round"></line><circle opacity="1" r="0.1892618955761317" fill="#000000" cx="12.5" cy="12.5"></circle><circle opacity="1" r="0.16511728395061728" fill="#000000" cx="14.5" cy="12.5"></circle><line opacity="1" x1="16.5" y1="12.5" x2="17.5" y2="11.5" stroke-width="0.09816756687242797" stroke="#000000" stroke-linecap="round"></line><line opacity="1" x1="16.5" y1="12.5" x2="18.5" y2="14.5" stroke-width="0.29091692386831275" stroke="#000000" stroke-linecap="round"></line><circle opacity="1" r="0.42650289351851856" fill="#000000" cx="16.5" cy="12.5"></circle><line opacity="1" x1="19.5" y1="12.5" x2="20.5" y2="11.5" stroke-width="0.17004989711934157" stroke="#000000" stroke-linecap="round"></line><circle opacity="1" r="0.35292431841563787" fill="#000000" cx="19.5" cy="12.5"></circle><line opacity="1" x1="20.5" y1="12.5" x2="22.5" y2="10.5" stroke-width="0.11896682098765432" stroke="#000000" stroke-linecap="round"></line><line opacity="1" x1="20.5" y1="12.5" x2="21.5" y2="13.5" stroke-width="0.12477944958847735" stroke="#000000" stroke-linecap="round"></line><circle opacity="1" r="0.33876594650205766" fill="#000000" cx="20.5" cy="12.5"></circle><line opacity="1" x1="21.5" y1="12.5" x2="22.5" y2="11.5" stroke-width="0.10642785493827159" stroke="#000000" stroke-linecap="round"></line><circle opacity="1" r="0.3955191615226338" fill="#000000" cx="21.5" cy="12.5"></circle><line opacity="1" x1="0.5" y1="13.5" x2="1.5" y2="12.5" stroke-width="0.13711947016460904" stroke="#000000" stroke-linecap="round"></line><line opacity="1" x1="0.5" y1="13.5" x2="1.5" y2="14.5" stroke-width="0.12256944444444443" stroke="#000000" stroke-linecap="round"></line><circle opacity="1" r="0.3723445859053498" fill="#000000" cx="0.5" cy="13.5"></circle><line opacity="1" x1="1.5" y1="13.5" x2="2.5" y2="14.5" stroke-width="0.28321476337448553" stroke="#000000" stroke-linecap="round"></line><circle opacity="1" r="0.3887814429012346" fill="#000000" cx="1.5" cy="13.5"></circle><circle opacity="1" r="0.2614269547325103" fill="#000000" cx="3.5" cy="13.5"></circle><circle opacity="1" r="0.19733249742798353" fill="#000000" cx="5.5" cy="13.5"></circle><line opacity="1" x1="10.5" y1="13.5" x2="11.5" y2="14.5" stroke-width="0.17089429012345678" stroke="#000000" stroke-linecap="round"></line><circle opacity="1" r="0.18151626800411524" fill="#000000" cx="10.5" cy="13.5"></circle><line opacity="1" x1="13.5" y1="13.5" x2="14.5" y2="12.5" stroke-width="0.13644701646090535" stroke="#000000" stroke-linecap="round"></line><circle opacity="1" r="0.2709623842592593" fill="#000000" cx="13.5" cy="13.5"></circle><circle opacity="1" r="0.2513625257201646" fill="#000000" cx="14.5" cy="13.5"></circle><circle opacity="1" r="0.3530782536008231" fill="#000000" cx="17.5" cy="13.5"></circle><circle opacity="1" r="0.2110632716049383" fill="#000000" cx="21.5" cy="13.5"></circle><line opacity="1" x1="0.5" y1="14.5" x2="2.5" y2="12.5" stroke-width="0.19294843106995885" stroke="#000000" stroke-linecap="round"></line><circle opacity="1" r="0.4062115483539095" fill="#000000" cx="0.5" cy="14.5"></circle><circle opacity="1" r="0.2138377700617284" fill="#000000" cx="1.5" cy="14.5"></circle><line opacity="1" x1="2.5" y1="14.5" x2="4.5" y2="12.5" stroke-width="0.0976085390946502" stroke="#000000" stroke-linecap="round"></line><circle opacity="1" r="0.22118512088477368" fill="#000000" cx="2.5" cy="14.5"></circle><line opacity="1" x1="3.5" y1="14.5" x2="5.5" y2="16.5" stroke-width="0.2617106481481481" stroke="#000000" stroke-linecap="round"></line><circle opacity="1" r="0.2669429655349794" fill="#000000" cx="3.5" cy="14.5"></circle><line opacity="1" x1="4.5" y1="14.5" x2="8.5" y2="10.5" stroke-width="0.1170781893004115" stroke="#000000" stroke-linecap="round"></line><circle opacity="1" r="0.312407600308642" fill="#000000" cx="4.5" cy="14.5"></circle><circle opacity="1" r="0.41331700102880664" fill="#000000" cx="6.5" cy="14.5"></circle><line opacity="1" x1="7.5" y1="14.5" x2="11.5" y2="18.5" stroke-width="0.10227070473251028" stroke="#000000" stroke-linecap="round"></line><circle opacity="1" r="0.36070293209876547" fill="#000000" cx="7.5" cy="14.5"></circle><line opacity="1" x1="9.5" y1="14.5" x2="12.5" y2="17.5" stroke-width="0.29867219650205756" stroke="#000000" stroke-linecap="round"></line><circle opacity="1" r="0.2796475051440329" fill="#000000" cx="9.5" cy="14.5"></circle><line opacity="1" x1="10.5" y1="14.5" x2="11.5" y2="15.5" stroke-width="0.24596874999999996" stroke="#000000" stroke-linecap="round"></line><circle opacity="1" r="0.20533590534979423" fill="#000000" cx="10.5" cy="14.5"></circle><circle opacity="1" r="0.32948218878600827" fill="#000000" cx="11.5" cy="14.5"></circle><line opacity="1" x1="13.5" y1="14.5" x2="14.5" y2="13.5" stroke-width="0.11141589506172839" stroke="#000000" stroke-linecap="round"></line><line opacity="1" x1="13.5" y1="14.5" x2="14.5" y2="15.5" stroke-width="0.24361741255144032" stroke="#000000" stroke-linecap="round"></line><circle opacity="1" r="0.44990715020576133" fill="#000000" cx="13.5" cy="14.5"></circle><circle opacity="1" r="0.2166305941358025" fill="#000000" cx="17.5" cy="14.5"></circle><circle opacity="1" r="0.2163825874485597" fill="#000000" cx="18.5" cy="14.5"></circle><circle opacity="1" r="0.1896723894032922" fill="#000000" cx="19.5" cy="14.5"></circle><circle opacity="1" r="0.2781203703703704" fill="#000000" cx="21.5" cy="14.5"></circle><line opacity="1" x1="23.5" y1="14.5" x2="24.5" y2="15.5" stroke-width="0.27995151748971187" stroke="#000000" stroke-linecap="round"></line><circle opacity="1" r="0.23752790637860083" fill="#000000" cx="23.5" cy="14.5"></circle><line opacity="1" x1="0.5" y1="15.5" x2="1.5" y2="14.5" stroke-width="0.1248406635802469" stroke="#000000" stroke-linecap="round"></line><circle opacity="1" r="0.2564570473251029" fill="#000000" cx="0.5" cy="15.5"></circle><circle opacity="1" r="0.4272237011316873" fill="#000000" cx="4.5" cy="15.5"></circle><circle opacity="1" r="0.42287075617283953" fill="#000000" cx="7.5" cy="15.5"></circle><circle opacity="1" r="0.40612969393004117" fill="#000000" cx="8.5" cy="15.5"></circle><line opacity="1" x1="9.5" y1="15.5" x2="10.5" y2="14.5" stroke-width="0.1950072016460905" stroke="#000000" stroke-linecap="round"></line><circle opacity="1" r="0.17363136574074076" fill="#000000" cx="9.5" cy="15.5"></circle><circle opacity="1" r="0.42055928497942385" fill="#000000" cx="10.5" cy="15.5"></circle><circle opacity="1" r="0.2821361239711935" fill="#000000" cx="11.5" cy="15.5"></circle><circle opacity="1" r="0.4383155864197531" fill="#000000" cx="13.5" cy="15.5"></circle><circle opacity="1" r="0.41849582047325107" fill="#000000" cx="14.5" cy="15.5"></circle><line opacity="1" x1="15.5" y1="15.5" x2="16.5" y2="16.5" stroke-width="0.10462834362139917" stroke="#000000" stroke-linecap="round"></line><circle opacity="1" r="0.19567341820987655" fill="#000000" cx="15.5" cy="15.5"></circle><circle opacity="1" r="0.23368930041152264" fill="#000000" cx="23.5" cy="15.5"></circle><circle opacity="1" r="0.41940965792181073" fill="#000000" cx="24.5" cy="15.5"></circle><circle opacity="1" r="0.4194548611111112" fill="#000000" cx="0.5" cy="16.5"></circle><line opacity="1" x1="3.5" y1="16.5" x2="4.5" y2="15.5" stroke-width="0.16728716563786006" stroke="#000000" stroke-linecap="round"></line><circle opacity="1" r="0.24955684156378602" fill="#000000" cx="3.5" cy="16.5"></circle><circle opacity="1" r="0.37340991512345684" fill="#000000" cx="5.5" cy="16.5"></circle><line opacity="1" x1="6.5" y1="16.5" x2="7.5" y2="15.5" stroke-width="0.2343083847736625" stroke="#000000" stroke-linecap="round"></line><circle opacity="1" r="0.3640443029835391" fill="#000000" cx="6.5" cy="16.5"></circle><line opacity="1" x1="7.5" y1="16.5" x2="13.5" y2="10.5" stroke-width="0.09831790123456789" stroke="#000000" stroke-linecap="round"></line><circle opacity="1" r="0.3403114068930041" fill="#000000" cx="7.5" cy="16.5"></circle><line opacity="1" x1="9.5" y1="16.5" x2="11.5" y2="14.5" stroke-width="0.1980372942386831" stroke="#000000" stroke-linecap="round"></line><circle opacity="1" r="0.2318408564814815" fill="#000000" cx="9.5" cy="16.5"></circle><circle opacity="1" r="0.32703266460905356" fill="#000000" cx="11.5" cy="16.5"></circle><line opacity="1" x1="13.5" y1="16.5" x2="17.5" y2="20.5" stroke-width="0.12392425411522633" stroke="#000000" stroke-linecap="round"></line><circle opacity="1" r="0.3738167438271605" fill="#000000" cx="13.5" cy="16.5"></circle><circle opacity="1" r="0.4397608667695474" fill="#000000" cx="16.5" cy="16.5"></circle><circle opacity="1" r="0.18104835390946503" fill="#000000" cx="17.5" cy="16.5"></circle><circle opacity="1" r="0.43596624228395064" fill="#000000" cx="18.5" cy="16.5"></circle><line opacity="1" x1="19.5" y1="16.5" x2="21.5" y2="18.5" stroke-width="0.13586548353909464" stroke="#000000" stroke-linecap="round"></line><circle opacity="1" r="0.34039692644032926" fill="#000000" cx="19.5" cy="16.5"></circle><line opacity="1" x1="20.5" y1="16.5" x2="23.5" y2="19.5" stroke-width="0.15413425925925925" stroke="#000000" stroke-linecap="round"></line><circle opacity="1" r="0.37823810442386835" fill="#000000" cx="20.5" cy="16.5"></circle><circle opacity="1" r="0.23783577674897122" fill="#000000" cx="22.5" cy="16.5"></circle><circle opacity="1" r="0.22578607253086422" fill="#000000" cx="9.5" cy="17.5"></circle><line opacity="1" x1="10.5" y1="17.5" x2="11.5" y2="16.5" stroke-width="0.293727366255144" stroke="#000000" stroke-linecap="round"></line><circle opacity="1" r="0.277114904835391" fill="#000000" cx="10.5" cy="17.5"></circle><line opacity="1" x1="11.5" y1="17.5" x2="12.5" y2="18.5" stroke-width="0.10912577160493826" stroke="#000000" stroke-linecap="round"></line><circle opacity="1" r="0.2507431198559671" fill="#000000" cx="11.5" cy="17.5"></circle><circle opacity="1" r="0.2919843106995885" fill="#000000" cx="12.5" cy="17.5"></circle><circle opacity="1" r="0.26630034722222223" fill="#000000" cx="14.5" cy="17.5"></circle><circle opacity="1" r="0.20975604423868313" fill="#000000" cx="16.5" cy="17.5"></circle><circle opacity="1" r="0.4011939943415638" fill="#000000" cx="20.5" cy="17.5"></circle><circle opacity="1" r="0.28556790123456793" fill="#000000" cx="21.5" cy="17.5"></circle><line opacity="1" x1="22.5" y1="17.5" x2="23.5" y2="18.5" stroke-width="0.2906243569958848" stroke="#000000" stroke-linecap="round"></line><circle opacity="1" r="0.4384939557613169" fill="#000000" cx="22.5" cy="17.5"></circle><circle opacity="1" r="0.3675090663580247" fill="#000000" cx="24.5" cy="17.5"></circle><circle opacity="1" r="0.19705272633744858" fill="#000000" cx="11.5" cy="18.5"></circle><circle opacity="1" r="0.23763419495884774" fill="#000000" cx="12.5" cy="18.5"></circle><circle opacity="1" r="0.34587384259259263" fill="#000000" cx="15.5" cy="18.5"></circle><circle opacity="1" r="0.17783648405349795" fill="#000000" cx="16.5" cy="18.5"></circle><circle opacity="1" r="0.2023647119341564" fill="#000000" cx="18.5" cy="18.5"></circle><line opacity="1" x1="20.5" y1="18.5" x2="23.5" y2="15.5" stroke-width="0.218514274691358" stroke="#000000" stroke-linecap="round"></line><line opacity="1" x1="20.5" y1="18.5" x2="21.5" y2="19.5" stroke-width="0.1256463477366255" stroke="#000000" stroke-linecap="round"></line><circle opacity="1" r="0.1664355066872428" fill="#000000" cx="20.5" cy="18.5"></circle><circle opacity="1" r="0.18187422839506173" fill="#000000" cx="21.5" cy="18.5"></circle><circle opacity="1" r="0.42242483281893006" fill="#000000" cx="22.5" cy="18.5"></circle><line opacity="1" x1="23.5" y1="18.5" x2="24.5" y2="17.5" stroke-width="0.1515974794238683" stroke="#000000" stroke-linecap="round"></line><circle opacity="1" r="0.27700983796296297" fill="#000000" cx="23.5" cy="18.5"></circle><line opacity="1" x1="8.5" y1="19.5" x2="12.5" y2="23.5" stroke-width="0.22906378600823044" stroke="#000000" stroke-linecap="round"></line><circle opacity="1" r="0.282597929526749" fill="#000000" cx="8.5" cy="19.5"></circle><circle opacity="1" r="0.1735690586419753" fill="#000000" cx="10.5" cy="19.5"></circle><line opacity="1" x1="14.5" y1="19.5" x2="16.5" y2="21.5" stroke-width="0.27129333847736625" stroke="#000000" stroke-linecap="round"></line><circle opacity="1" r="0.38718955761316876" fill="#000000" cx="14.5" cy="19.5"></circle><line opacity="1" x1="15.5" y1="19.5" x2="16.5" y2="20.5" stroke-width="0.1712750771604938" stroke="#000000" stroke-linecap="round"></line><circle opacity="1" r="0.42810943930041157" fill="#000000" cx="15.5" cy="19.5"></circle><circle opacity="1" r="0.3961214634773663" fill="#000000" cx="16.5" cy="19.5"></circle><circle opacity="1" r="0.4159583333333333" fill="#000000" cx="20.5" cy="19.5"></circle><circle opacity="1" r="0.23868486368312758" fill="#000000" cx="21.5" cy="19.5"></circle><circle opacity="1" r="0.4281436471193416" fill="#000000" cx="23.5" cy="19.5"></circle><circle opacity="1" r="0.4292883873456791" fill="#000000" cx="9.5" cy="20.5"></circle><line opacity="1" x1="13.5" y1="20.5" x2="15.5" y2="22.5" stroke-width="0.150065329218107" stroke="#000000" stroke-linecap="round"></line><circle opacity="1" r="0.31700610853909467" fill="#000000" cx="13.5" cy="20.5"></circle><line opacity="1" x1="14.5" y1="20.5" x2="16.5" y2="18.5" stroke-width="0.28824151234567896" stroke="#000000" stroke-linecap="round"></line><circle opacity="1" r="0.285356545781893" fill="#000000" cx="14.5" cy="20.5"></circle><circle opacity="1" r="0.18145884773662552" fill="#000000" cx="15.5" cy="20.5"></circle><circle opacity="1" r="0.2639693287037037" fill="#000000" cx="16.5" cy="20.5"></circle><circle opacity="1" r="0.1889528034979424" fill="#000000" cx="17.5" cy="20.5"></circle><line opacity="1" x1="18.5" y1="20.5" x2="21.5" y2="23.5" stroke-width="0.28176453189300404" stroke="#000000" stroke-linecap="round"></line><circle opacity="1" r="0.3228202160493827" fill="#000000" cx="18.5" cy="20.5"></circle><line opacity="1" x1="19.5" y1="20.5" x2="22.5" y2="17.5" stroke-width="0.2344623199588477" stroke="#000000" stroke-linecap="round"></line><line opacity="1" x1="19.5" y1="20.5" x2="22.5" y2="23.5" stroke-width="0.1984153806584362" stroke="#000000" stroke-linecap="round"></line><circle opacity="1" r="0.44434471450617286" fill="#000000" cx="19.5" cy="20.5"></circle><circle opacity="1" r="0.3504161522633745" fill="#000000" cx="20.5" cy="20.5"></circle><circle opacity="1" r="0.2458587319958848" fill="#000000" cx="23.5" cy="20.5"></circle><rect fill="#000000" x="2" y="20" width="3" height="3"></rect><rect fill="none" stroke-width="1" stroke="#000000" x="0.5" y="18.5" width="6" height="6"></rect><line opacity="1" x1="8.5" y1="21.5" x2="14.5" y2="15.5" stroke-width="0.09905787037037037" stroke="#000000" stroke-linecap="round"></line><circle opacity="1" r="0.2757832433127572" fill="#000000" cx="8.5" cy="21.5"></circle><line opacity="1" x1="9.5" y1="21.5" x2="12.5" y2="24.5" stroke-width="0.22275874485596706" stroke="#000000" stroke-linecap="round"></line><circle opacity="1" r="0.21041454475308644" fill="#000000" cx="9.5" cy="21.5"></circle><circle opacity="1" r="0.25590727880658437" fill="#000000" cx="10.5" cy="21.5"></circle><circle opacity="1" r="0.44382671039094657" fill="#000000" cx="12.5" cy="21.5"></circle><line opacity="1" x1="14.5" y1="21.5" x2="16.5" y2="19.5" stroke-width="0.24654938271604931" stroke="#000000" stroke-linecap="round"></line><circle opacity="1" r="0.409538258744856" fill="#000000" cx="14.5" cy="21.5"></circle><circle opacity="1" r="0.37557111625514406" fill="#000000" cx="16.5" cy="21.5"></circle><line opacity="1" x1="19.5" y1="21.5" x2="22.5" y2="18.5" stroke-width="0.13581597222222222" stroke="#000000" stroke-linecap="round"></line><circle opacity="1" r="0.28542618312757206" fill="#000000" cx="19.5" cy="21.5"></circle><circle opacity="1" r="0.25915579989711934" fill="#000000" cx="20.5" cy="21.5"></circle><line opacity="1" x1="22.5" y1="21.5" x2="24.5" y2="23.5" stroke-width="0.2987631172839506" stroke="#000000" stroke-linecap="round"></line><circle opacity="1" r="0.2873210519547325" fill="#000000" cx="22.5" cy="21.5"></circle><line opacity="1" x1="23.5" y1="21.5" x2="24.5" y2="22.5" stroke-width="0.12561213991769546" stroke="#000000" stroke-linecap="round"></line><circle opacity="1" r="0.3046375385802469" fill="#000000" cx="23.5" cy="21.5"></circle><line opacity="1" x1="8.5" y1="22.5" x2="9.5" y2="21.5" stroke-width="0.15187474279835392" stroke="#000000" stroke-linecap="round"></line><line opacity="1" x1="8.5" y1="22.5" x2="9.5" y2="23.5" stroke-width="0.23136021090534975" stroke="#000000" stroke-linecap="round"></line><circle opacity="1" r="0.19987731481481483" fill="#000000" cx="8.5" cy="22.5"></circle><circle opacity="1" r="0.28913162294238687" fill="#000000" cx="10.5" cy="22.5"></circle><line opacity="1" x1="11.5" y1="22.5" x2="17.5" y2="16.5" stroke-width="0.144122170781893" stroke="#000000" stroke-linecap="round"></line><circle opacity="1" r="0.2527907021604938" fill="#000000" cx="11.5" cy="22.5"></circle><line opacity="1" x1="12.5" y1="22.5" x2="13.5" y2="23.5" stroke-width="0.14640329218106996" stroke="#000000" stroke-linecap="round"></line><circle opacity="1" r="0.2618973122427984" fill="#000000" cx="12.5" cy="22.5"></circle><line opacity="1" x1="14.5" y1="22.5" x2="15.5" y2="23.5" stroke-width="0.18735725308641973" stroke="#000000" stroke-linecap="round"></line><circle opacity="1" r="0.22496997170781896" fill="#000000" cx="14.5" cy="22.5"></circle><line opacity="1" x1="15.5" y1="22.5" x2="17.5" y2="20.5" stroke-width="0.16068775720164608" stroke="#000000" stroke-linecap="round"></line><circle opacity="1" r="0.16663831018518518" fill="#000000" cx="15.5" cy="22.5"></circle><circle opacity="1" r="0.35814956275720167" fill="#000000" cx="16.5" cy="22.5"></circle><line opacity="1" x1="19.5" y1="22.5" x2="20.5" y2="21.5" stroke-width="0.22949138374485595" stroke="#000000" stroke-linecap="round"></line><line opacity="1" x1="19.5" y1="22.5" x2="21.5" y2="24.5" stroke-width="0.16373765432098766" stroke="#000000" stroke-linecap="round"></line><circle opacity="1" r="0.18983609825102882" fill="#000000" cx="19.5" cy="22.5"></circle><circle opacity="1" r="0.3757763631687243" fill="#000000" cx="20.5" cy="22.5"></circle><circle opacity="1" r="0.426180362654321" fill="#000000" cx="21.5" cy="22.5"></circle><circle opacity="1" r="0.40877957818930044" fill="#000000" cx="23.5" cy="22.5"></circle><circle opacity="1" r="0.44408326903292183" fill="#000000" cx="24.5" cy="22.5"></circle><circle opacity="1" r="0.19871180555555557" fill="#000000" cx="8.5" cy="23.5"></circle><circle opacity="1" r="0.27873000257201647" fill="#000000" cx="9.5" cy="23.5"></circle><line opacity="1" x1="11.5" y1="23.5" x2="12.5" y2="22.5" stroke-width="0.2579855967078189" stroke="#000000" stroke-linecap="round"></line><circle opacity="1" r="0.2714168595679013" fill="#000000" cx="11.5" cy="23.5"></circle><circle opacity="1" r="0.20343737139917697" fill="#000000" cx="12.5" cy="23.5"></circle><circle opacity="1" r="0.3412179140946502" fill="#000000" cx="13.5" cy="23.5"></circle><line opacity="1" x1="15.5" y1="23.5" x2="16.5" y2="22.5" stroke-width="0.11066512345679012" stroke="#000000" stroke-linecap="round"></line><circle opacity="1" r="0.3016516846707819" fill="#000000" cx="15.5" cy="23.5"></circle><line opacity="1" x1="19.5" y1="23.5" x2="20.5" y2="22.5" stroke-width="0.2687178497942387" stroke="#000000" stroke-linecap="round"></line><circle opacity="1" r="0.36734780092592595" fill="#000000" cx="19.5" cy="23.5"></circle><line opacity="1" x1="20.5" y1="23.5" x2="23.5" y2="20.5" stroke-width="0.268406378600823" stroke="#000000" stroke-linecap="round"></line><circle opacity="1" r="0.42571367026748974" fill="#000000" cx="20.5" cy="23.5"></circle><circle opacity="1" r="0.343073688271605" fill="#000000" cx="21.5" cy="23.5"></circle><circle opacity="1" r="0.35360114454732516" fill="#000000" cx="22.5" cy="23.5"></circle><line opacity="1" x1="23.5" y1="23.5" x2="24.5" y2="22.5" stroke-width="0.13750565843621398" stroke="#000000" stroke-linecap="round"></line><line opacity="1" x1="23.5" y1="23.5" x2="24.5" y2="24.5" stroke-width="0.14450655864197529" stroke="#000000" stroke-linecap="round"></line><circle opacity="1" r="0.25983629115226337" fill="#000000" cx="23.5" cy="23.5"></circle><circle opacity="1" r="0.22257053755144035" fill="#000000" cx="24.5" cy="23.5"></circle><line opacity="1" x1="8.5" y1="24.5" x2="10.5" y2="22.5" stroke-width="0.09648148148148147" stroke="#000000" stroke-linecap="round"></line><circle opacity="1" r="0.24457838220164613" fill="#000000" cx="8.5" cy="24.5"></circle><line opacity="1" x1="12.5" y1="24.5" x2="14.5" y2="22.5" stroke-width="0.14434902263374486" stroke="#000000" stroke-linecap="round"></line><circle opacity="1" r="0.26629301697530866" fill="#000000" cx="12.5" cy="24.5"></circle><line opacity="1" x1="21.5" y1="24.5" x2="23.5" y2="22.5" stroke-width="0.28274125514403287" stroke="#000000" stroke-linecap="round"></line><circle opacity="1" r="0.3967885159465021" fill="#000000" cx="21.5" cy="24.5"></circle><circle opacity="1" r="0.3502133487654321" fill="#000000" cx="24.5" cy="24.5"></circle></svg>